# xmcd
#
# Track frame offsets:
#	150
#	60759
#	121409
#	160034
#	174010
#	238359
#	291938
#
# Disc length: 4101 seconds
#
# Revision: 1
# Processed by: cddbd v1.5.2PL0 Copyright (c) Steve Scherf et al.
# Submitted via: audiograbber 1.83.01
#
DISCID=54100307
DTITLE=Grateful Dead - 78-01-17 Sacramento Memorial Auditorium, Sacramento CA
DYEAR=1900
DGENRE=
TTITLE0=Estimated Prophet
TTITLE1=He's Gone
TTITLE2=Jam
TTITLE3=Drums
TTITLE4=The Other One
TTITLE5=Black Peter
TTITLE6=Truckin'
EXTD=
EXTT0=
EXTT1=
EXTT2=
EXTT3=
EXTT4=
EXTT5=
EXTT6=
PLAYORDER=
